<?xml version="1.0" standalone="no"?>
<!DOCTYPE svg PUBLIC "-//W3C//DTD SVG 20010904//EN"
 "http://www.w3.org/TR/2001/REC-SVG-20010904/DTD/svg10.dtd">
<svg version="1.0" xmlns="http://www.w3.org/2000/svg"
 width="250.000000pt" height="250.000000pt" viewBox="0 0 250.000000 250.000000"
 preserveAspectRatio="xMidYMid meet">
<metadata>
Created by potrace 1.14, written by Peter Selinger 2001-2017
</metadata>
<g transform="translate(0.000000,250.000000) scale(0.100000,-0.100000)"
fill="#000000" stroke="none">
<path d="M310 2035 l0 -155 -155 0 -155 0 0 -470 0 -470 155 0 155 0 0 -155 0
-155 -155 0 -155 0 0 -315 0 -315 310 0 310 0 0 155 0 155 160 0 160 0 0 -155
0 -155 625 0 625 0 0 158 0 157 155 -3 155 -3 0 626 0 625 -155 0 -155 0 0
315 0 316 -156 -3 -156 -3 1 -152 2 -152 -158 -3 -158 -3 -3 -157 -3 -158
-154 0 -155 0 0 163 c-1 89 -1 228 0 310 l1 147 -156 0 -155 0 0 -150 0 -150
-155 0 -155 0 0 155 0 155 -160 0 -160 0 0 -155z m310 -320 l0 -156 -152 3
-153 3 -3 153 -3 152 156 0 155 0 0 -155z m630 -310 l0 -156 -156 3 -155 3 -2
153 -2 152 158 0 157 0 0 -155z m620 -310 l0 -155 -155 0 -155 0 0 -155 0
-155 -155 0 -155 0 0 155 0 155 155 0 155 0 0 155 0 155 155 0 155 0 0 -155z
m-620 -630 l0 -155 -155 0 -155 0 0 155 0 155 155 0 155 0 0 -155z m620 0 l0
-155 -155 0 -155 0 0 155 0 155 155 0 155 0 0 -155z"/>
</g>
</svg>
